<?xml version="1.0" encoding="utf-8"?>
<!DOCTYPE svg PUBLIC "-//W3C//DTD SVG 1.1//EN" "http://www.w3.org/Graphics/SVG/1.1/DTD/svg11.dtd">
<svg version="1.1" xmlns="http://www.w3.org/2000/svg" xmlns:xlink="http://www.w3.org/1999/xlink" x="0px" y="0px" viewBox="0 0 3264 1379" enable-background="new 0 0 3264 1379" xml:space="preserve">
<radialGradient id="scene-background-grad" cx="1632" cy="1224" r="1442" gradientTransform="matrix(0.87 -0.5 0.8 1.4 -760 344)" gradientUnits="userSpaceOnUse">
	<stop  offset="0" style="stop-color:#a3a3a3"/>
	<stop  offset="1" style="stop-color:#202121"/>
</radialGradient>
<linearGradient id="desk-side-2-grad" gradientUnits="userSpaceOnUse" x1="851" y1="1027" x2="1297" y2="1027">
	<stop  offset="0.3297" style="stop-color:#000"/>
	<stop  offset="0.9569" style="stop-color:#444"/>
</linearGradient>
<linearGradient id="laptop-side-grad" gradientUnits="userSpaceOnUse" x1="1304" y1="1148" x2="1561" y2="1148">
	<stop  offset="0" style="stop-color:#000"/>
	<stop  offset="0.086" style="stop-color:#272324"/>
	<stop  offset="0.21" style="stop-color:#fff"/>
	<stop  offset="0.35" style="stop-color:#aaa"/>
	<stop  offset="0.95" style="stop-color:#757273"/>
</linearGradient>
<linearGradient id="laptop-top-grad" gradientUnits="userSpaceOnUse" x1="1298" y1="946" x2="1449" y2="1169">
	<stop  offset="0" style="stop-color:#000"/>
	<stop  offset="0.71" style="stop-color:#272324"/>
	<stop  offset="0.95" style="stop-color:#757273"/>
</linearGradient>
<linearGradient id="desk-side-3-grad" gradientUnits="userSpaceOnUse" x1="1271" y1="1017" x2="1662" y2="1017">
	<stop  offset="0.33" style="stop-color:#000"/>
	<stop  offset="0.96" style="stop-color:#444041"/>
</linearGradient>
<linearGradient id="footrest-cushion-grad" gradientUnits="userSpaceOnUse" x1="1914" y1="1496" x2="2018" y2="1211">
	<stop  offset="0.24" style="stop-color:#3f1a00"/>
	<stop  offset="0.96" style="stop-color:#2a0b00"/>
</linearGradient>
<linearGradient id="display-foot-grad" gradientUnits="userSpaceOnUse" x1="1997" y1="865" x2="1916" y2="1086">
	<stop  offset="0.1" style="stop-color:#757273"/>
	<stop  offset="0.22" style="stop-color:#fff"/>
	<stop  offset="0.39" style="stop-color:#807e7f"/>
	<stop  offset="1" style="stop-color:#000"/>
</linearGradient>
<linearGradient id="desk-side-1-grad" gradientUnits="userSpaceOnUse" x1="851" y1="607" x2="1662" y2="607">
	<stop  offset="0.33" style="stop-color:#000"/>
	<stop  offset="0.96" style="stop-color:#444041"/>
</linearGradient>
<linearGradient id="desk-side-4-grad" gradientUnits="userSpaceOnUse" x1="2747" y1="822" x2="2869" y2="1515">
	<stop  offset="0.33" style="stop-color:#000"/>
	<stop  offset="0.96" style="stop-color:#444041"/>
</linearGradient>
<linearGradient id="chair-top-grad" gradientUnits="userSpaceOnUse" x1="0" y1="1687" x2="1062" y2="1687">
	<stop  offset="0.24" style="stop-color:#3f1a00"/>
	<stop  offset="0.96" style="stop-color:#2a0b00"/>
</linearGradient>
<linearGradient id="display-screen-grad" gradientUnits="userSpaceOnUse" x1="1476" y1="296" x2="2603" y2="706">
	<stop  offset="0.04" style="stop-color:#444041"/>
	<stop  offset="0.67" style="stop-color:#000"/>
</linearGradient>
<linearGradient id="desk-side-5-grad" gradientUnits="userSpaceOnUse" x1="2121" y1="1776" x2="3203" y2="1776">
	<stop  offset="0.33" style="stop-color:#000"/>
	<stop  offset="0.96" style="stop-color:#444041"/>
</linearGradient>

<rect id="scene-background" fill="url(#scene-background-grad)" width="3264" height="2448"/>
<path id="desk-shadow" fill="#000" d="M1270,621 1312,1455 1509,1506 1563,1137 1685,1082 1620,607z"/>
<path id="laptop-side" fill="url(#laptop-side-grad)" d="M1304,1208c0,0,33,46,71,21c38-26,182-125,182-125 s22-23-39-43C1457,1042,1304,1208,1304,1208z"/>
<path id="laptop-top" fill="url(#laptop-top-grad)" d="M1300,1185l34,37c0,0,11,17,38,0 c26-17,176-127,176-127s14-11-15-26c-28-15-248-114-248-114 L1300,1185z"/>
<path id="footrest-leg-face" fill="#c9ae8f" stroke="#000" stroke-width="1" d="M1468,1434 c0,0,0-165,6-213c6-48,43-101,83-115c40-14,104-33,104-33 l83,33l-140,44c0,0-64,5-70,104c-7,95-2,208-2,208L1468,1434z"/>
<path id="footrest-leg-side" fill="#a38565" d="M1762,1119l-200,61c0,0,9-19,44-30s133-46,133-46 L1762,1119z"/>
<path id="footrest-bar-top" fill="#a38565" d="M2207,1631 1533,1275 1536,1254 2207,1604z"/>
<path id="footrest-bar-side" fill="#c9ae8f" stroke="#000" stroke-width="a" d="M2180,1702 1533,1330 1533,1275 2207,1631z"/>
<path id="footrest-leg-side-bottom" fill="#a38565" d="M1553,1470 1547,1338 1533,1330 1533,1456z"/>
<path id="desk-side-3" fill="url(#desk-side-3-grad)" stroke="#000" stroke-width="1" d="M1304,776 1312,942 1326,1408 1297,1456 1271,745 1662,579 1662,623z"/>
<path id="footrest-cushion" fill="url(#footrest-cushion-grad)" d="M1772,1122l-202,58c0,0-27,20-27,78 c5,14,654,341,654,341l220-199L1772,1122z"/>
<path id="plank-near" fill="#c9ae8f" stroke="#000" stroke-width="1" d="M1439,842 2490,1215 2327,1366 1300,947 1312,942 1311,899z"/>
<path id="plank-far" fill="#c9ae8f" stroke="#000" stroke-width="1" d="M1601,757 2447,1061 2349,1165 1439,842z"/>
<path id="display-foot" fill="url(#display-foot-grad)" d="M1908,916l-137,67c0,0-36,18,0,35 c36,17,195,86,195,86s23,11,54-12c31-23,113-92,113-92 s31-39,27-66c-4-27-213-69-213-69S1934,903,1908,916z"/>
<path id="plank-near-side" fill="#a38565" d="M1300,969 1300,947 2296,1354 2293,1378z"/>
<path id="desk-side-2" fill="url(#desk-side-2-grad)" stroke="#000" stroke-width="1" d="M851,598 1271,745 1297,1456 936,1301z"/>
<path id="desk-side-1" fill="url(#desk-side-1-grad)" stroke="#000" stroke-width="1" d="M1260,469 851,598 1271,745 1662,579z"/>
<path id="desk-side-4" fill="url(#desk-side-4-grad)" stroke="#000" stroke-width="1" d="M3240,1026 3240,1378 3203,1456 2342,1122 2625,843z"/>
<path id="chair-top" fill="url(#chair-top-grad)" d="M0,1104c0,0,575,432,901,511c98,24,141,57,161,130 c0,0-77-168-244,45c0,0-6,140,46,225c9,21-15,90-22,109 c-7,19,24,143,24,147c0,4-30-19-30-19s-36,39-70,9 c-34-30-360-424-365-473s6-33,6-33l159,76c0,0-31,63,174,296 c0,0,48,12,63,4l-44-214l-118-74c0,0,72,107-642-335V1103z"/>
<path id="display-side" fill="#969696" d="M1582,66l1034,208c0,0,33,7,23,56s-19,83-19,83 L1558,75L1582,66z"/>
<path id="display-screen" fill="url(#display-screen-grad)" d="M1558,75l1024,205c0,0,46,4,36,52s-148,741-148,741 l-873-314c0,0-11-5-10-41c1-36-33-626-33-626S1552,81,1559,75z"/>
<path id="stuart-fur" fill="#fff" d="M2794,549c0,0,326,46,121,572c-40,103-36,42-36,42 s15,40-55,28c-70-12-101-30-150-25s-133,13-112-43l-28,25 c0,0-45,37-76-10c0,0-18-0-11-14c6-14,26-24,44-19 c0,0,23-45,17-50c-6-5-21,23-22,25s-18,19-50,10 c-32-8-45-23-29-42c16-18,30-20,38-10c0,0,24-31,23-46 c-1-15,11-101,17-114s-14-125-44-154c-15-27-24-72-10-96 c14-24,11-39,11-41s-7-6-19,3s-50-2-59-11 c-9-9-2-4-2-4s-18,2-20-19c1-10,9-33,9-33 s3-21,3-24c-0-4-18-36-6-61c13-24,23-43,20-55 c0,0-41-49-37-71c0,0,54-8,83,9c0,0,28-9,67,3c0,0,71-11,114,21 c43,32,73,68,79,89C2673,432,2734,426,2794,549z"/>
<path id="stuart-eye" fill="#000" d="M2405,495c0,0,9,49-21,12C2385,508,2386,494,2406,496z">
	<animate dur="8s" repeatCount="indefinite" attributeName="d" values="
		M2405,495c0,0,9,49-21,12C2385,508,2386,494,2406,496z;
		M2405.846,496c0,0-13,13-21,12C2385,508,2386,494,2406,496z;
		M2405.846,496c0,0-13,13-21,12C2385,508,2386,494,2406,496z;
		M2405,495c0,0,9,49-21,12C2385,508,2386,494,2406,496z;
		M2405,495c0,0,9,49-21,12C2385,508,2386,494,2406,496z;
		M2405,495c0,0,9,49-21,12C2385,508,2386,494,2406,496z;
		M2405,495c0,0,9,49-21,12C2385,508,2386,494,2406,496z;
		M2405,495c0,0,9,49-21,12C2385,508,2386,494,2406,496z;
		M2405,495c0,0,9,49-21,12C2385,508,2386,494,2406,496z;
		M2405,495c0,0,9,49-21,12C2385,508,2386,494,2406,496z;
		M2405,495c0,0,9,49-21,12C2385,508,2386,494,2406,496z;
		M2405,495c0,0,9,49-21,12C2385,508,2386,494,2406,496z;
		M2405,495c0,0,9,49-21,12C2385,508,2386,494,2406,496z;
		M2405,495c0,0,9,49-21,12C2385,508,2386,494,2406,496z;
		M2405,495c0,0,9,49-21,12C2385,508,2386,494,2406,496z;
		M2405,495c0,0,9,49-21,12C2385,508,2386,494,2406,496z;
		M2405,495c0,0,9,49-21,12C2385,508,2386,494,2406,496z;
		M2405,495c0,0,9,49-21,12C2385,508,2386,494,2406,496z;" />
</path>
<path id="stuart-nose" fill="#c68b95" d="M2366,558c0,0-8,11-5,17c3,5-1,0-1,0s-19-1-18-11 C2342,563,2363,561,2366,558z"/>
<path id="stuart-ear" fill="#c68b95" d="M2408,370c0,0,74,11,93,64l-49,5 C2452,438,2406,381,2408,370z"/>
<path id="footrest-leg2-face" fill="#c9ae8f" stroke="#000" stroke-width="1" d="M2305,1470 c0,0-124,77-137,277l45,25L2305,1470z"/>
<path id="desk-side-5" fill="url(#desk-side-5-grad)" stroke="#000" stroke-width="1" d="M3203,1456 2342,1122 2121,2222 2512,2430 2791,2430z"/>
<path id="plank-keyboard" fill="#c9ae8f" stroke="#000" stroke-width="1" d="M780,1406 2126,2073 2300,1805 1023,1254z"/>
<path id="plank-keyboard-side" fill="#a38565" d="M780,1428 2121,2091 2126,2073 780,1406z"/>
<path id="plank-keyboard-end" fill="#a38565" d="M2300,1823 2121,2091 2126,2073 2300,1805z"/>
<path id="keyboard-metal" fill="#999" d="M943,1400l110-102c0,0,4-6,23,0c19,6,655,221,655,221 s17,6,8,21c-9,15-91,124-91,124s-5,11-36,0 c-31-11-666-248-666-248S933,1410,943,1400z"/>
<path id="keys-left" fill="#fff" d="M1377,1566 946,1408 1062,1295 1480,1439z"/>
<path id="keys-midbottom" fill="#fff" d="M1397,1572 1489,1607 1504,1586 1471,1574 1490,1551 1463,1541 1445,1566 1412,1552z"/>
<path id="keys-midtop" fill="#fff" d="M1453,1501 1546,1531 1588,1476 1499,1445z"/>
<path id="keys-right" fill="#fff" d="M1509,1613 1606,1481 1735,1524 1641,1662z"/>
<path id="mouse-base" fill="#000" d="M1725,1574c0,0,78,12,85,33c7,22-9,60-31,89 c-22,28-96,112-141,11C1634,1650,1674,1585,1725,1574z"/>
<path id="mouse-accent-bottom" fill="#999" d="M1649,1658c0,0-12,61,86,48c50-19,67-48,67-48 s-49,105-128,82C1645,1722,1626,1713,1649,1658z"/>
<path id="mouse-accent-top" fill="#999" d="M1742,1583c0,0-4,14,27,6c0,0-44,52-49,50 c0,0-25,22-16-12C1714,1593,1736,1584,1742,1583z"/>
<path id="cable-tb" fill="#fff" d="M1390,1215v8l32,13v-3 c0,0,48,8,28,75s-60,96-60,96l6,2c0,0,120-121,37-176l-1-7 l-30-15L1390,1215z"/>
<path id="cable-usb" fill="#fff" d="M1417,1197l14-11 l25,11l-6,4c0,0,20,13,26,24s-1,8-1,8s-14-23-31-27l-6,4 l-1,0l-19-7V1197z"/>
<path id="cable-power" fill="#fff" d="M1371,1230l9,6 c0,0-16,13-16,14s2,2,2,2s-13,4-42,69v10c0,0,36-71,45-75 l3,0l34-26l-18-10L1371,1230z"/>
<circle id="cable-light" fill="#5aff8c" cx="1392" cy="1228" r="3"/>
</svg>
