<?xml version="1.0" encoding="utf-8"?>
<!DOCTYPE svg PUBLIC "-//W3C//DTD SVG 1.1//EN" "http://www.w3.org/Graphics/SVG/1.1/DTD/svg11.dtd">
<svg version="1.1" id="Layer_1" xmlns="http://www.w3.org/2000/svg" xmlns:xlink="http://www.w3.org/1999/xlink" x="0px" y="0px" width="257.667px" height="257.667px" viewBox="0 0 257.667 257.667">
	<path fill="#F8981C" d="M71.083,92.083h30.75c0,0,2.375,1.125,0,2.875c-2,0.562-8.938,1.875-8.938,5.812s0.125,52.562,0.125,52.562 s-2.375,28.312,28.062,28.562c31.812,0.262,29.688-19.938,29.688-29.438s0.312-67.062,0.312-67.062s2.188-12.75,13.438-12.75 s21.812,0,21.812,0s5.125,1.312,0,3.562c-4.188,0.562-11.5,0.812-11.5,8.312s0.125,76.5,0.125,76.5s6.375,33.062-53.188,33 c-46.312-0.312-43.688-40.5-43.688-40.5V98.458c0,0-2.875-4.062-7-4.062C68.583,94.271,69.396,92.083,71.083,92.083z"/>
	<circle fill="none" stroke="#F8981C" stroke-width="21" stroke-miterlimit="10" cx="128.834" cy="128.833" r="118.334"/>
</svg>
